<?xml version="1.0" encoding="UTF-8"?>
<svg width="485px" height="485px" viewBox="0 0 485 485" version="1.1" xmlns="http://www.w3.org/2000/svg" xmlns:xlink="http://www.w3.org/1999/xlink">
    <!-- Generator: Sketch 52.2 (67145) - http://www.bohemiancoding.com/sketch -->
    <title>t</title>
    <desc>Created with Sketch.</desc>
    <g id="t" stroke="none" stroke-width="1" fill="none" fill-rule="evenodd">
        <rect fill="#000000" x="0" y="0" width="485" height="485"></rect>
        <path d="M-6,0 L500,0 L500,485 L-6,485 L-6,0 Z M180.6,125.2 C245.7,132.34 278.04,140.74 278.04,163.84 C278.04,182.74 257.04,197.44 200.76,226.84 L219.24,257.5 C309.54,213.4 345.24,178.12 345.24,142.42 C345.24,101.26 297.36,76.48 194.04,66.4 L180.6,125.2 Z M235.2,352 L247.8,288.58 L179.34,288.58 L166.74,352 L235.2,352 Z M46.4,476.05 L50.8,463.07 L38.26,459.11 L38.26,458.23 C48.49,453.28 54.65,441.07 54.65,422.48 C54.65,400.81 45.96,389.04 30.12,389.04 C12.85,389.04 1.85,402.35 1.85,427.32 C1.85,446.9 8.89,458.34 21.98,460.43 L19.45,467.8 L46.4,476.05 Z M27.7,402.24 C34.74,402.24 37.93,410.05 37.93,426.11 C37.93,440.96 35.84,447.56 28.8,447.56 C21.76,447.56 18.57,439.75 18.57,423.69 C18.57,408.84 20.66,402.24 27.7,402.24 Z M99.021339,459.33 L113.541339,458.56 C112.771339,446.02 112.551339,429.08 112.551339,403.34 L96.931339,403.34 C96.931339,419.95 97.041339,434.14 97.261339,444.59 C94.731339,446.24 92.091339,447.23 88.901339,447.23 C84.391339,447.23 81.421339,444.7 81.421339,435.68 L81.421339,402.9 L65.801339,403.78 L65.801339,441.4 C65.801339,454.93 71.631339,460.54 81.201339,460.54 C88.681339,460.54 94.071339,457.13 98.251339,453.17 L99.021339,459.33 Z M160.992678,395.64 L161.982678,379.69 L145.592678,379.69 L144.602678,395.64 L160.992678,395.64 Z M177.712678,459 L179.032678,447.34 L161.102678,447.34 L161.102678,403.34 L128.212678,403.34 L127.002678,414.45 L145.372678,415.33 L145.372678,447.34 L127.442678,447.34 L127.442678,459 L177.712678,459 Z M234.844017,459 L236.054017,445.14 L206.464017,445.69 L234.844017,416.32 L234.844017,403.34 L189.414017,403.34 L188.204017,417.09 L217.024017,416.65 L188.424017,445.91 L188.424017,459 L234.844017,459 Z M294.065356,459.77 L295.715356,447.01 C280.425356,446.68 275.255356,445.14 275.255356,437.33 L275.255356,415.11 L294.615356,415.11 L294.615356,403.34 L275.255356,403.34 L275.255356,387.39 L259.745356,388.82 L259.745356,403.34 L249.845356,403.34 L248.525356,415.11 L259.745356,415.11 L259.745356,439.75 C259.745356,454.6 267.995356,460.43 294.065356,459.77 Z M344.596695,395.64 L345.586695,379.69 L329.196695,379.69 L328.206695,395.64 L344.596695,395.64 Z M361.316695,459 L362.636695,447.34 L344.706695,447.34 L344.706695,403.34 L311.816695,403.34 L310.606695,414.45 L328.976695,415.33 L328.976695,447.34 L311.046695,447.34 L311.046695,459 L361.316695,459 Z M393.258034,460.76 C408.548034,460.76 421.308034,448.44 421.308034,429.63 C421.308034,411.37 411.738034,401.58 397.768034,401.58 C382.368034,401.58 369.718034,414.56 369.718034,432.71 C369.718034,450.97 379.288034,460.76 393.258034,460.76 Z M396.118034,448.22 C389.408034,448.22 385.668034,442.28 385.668034,429.85 C385.668034,419.07 389.188034,414.12 395.018034,414.12 C401.618034,414.12 405.468034,420.06 405.468034,432.38 C405.468034,443.27 401.948034,448.22 396.118034,448.22 Z M457.319373,415.11 C461.829373,415.11 464.799373,417.64 464.799373,426.55 L464.799373,459 L480.419373,459 L480.419373,420.94 C480.419373,407.41 474.479373,401.8 465.019373,401.8 C457.539373,401.8 452.149373,405.21 447.969373,409.17 L447.199373,403.01 L432.679373,403.78 C433.449373,416.21 433.669373,433.26 433.669373,459 L449.289373,459 C449.289373,442.5 449.069373,428.31 448.849373,417.75 C451.379373,416.1 454.129373,415.11 457.319373,415.11 Z" id="Combined-Shape" fill="#FFFFFF"></path>
    </g>
</svg>