<?xml version="1.0" encoding="UTF-8"?>
<svg width="108px" height="108px" viewBox="0 0 108 108" version="1.1" xmlns="http://www.w3.org/2000/svg" xmlns:xlink="http://www.w3.org/1999/xlink">
    <!-- Generator: Sketch 52.2 (67145) - http://www.bohemiancoding.com/sketch -->
    <title>Artboard Copy</title>
    <desc>Created with Sketch.</desc>
    <g id="Artboard-Copy" stroke="none" stroke-width="1" fill="none" fill-rule="evenodd">
        <path d="M40.738,34.396 L43.3812,22.832 C63.7008,24.8144 73.1172,29.6878 73.1172,37.7826 C73.1172,44.8036 66.0962,51.742 48.3372,60.415 L44.7028,54.3852 C55.7712,48.6032 59.9012,45.7122 59.9012,41.9952 C59.9012,37.4522 53.541,35.8002 40.738,34.396 Z M51.476,79 L38.0122,79 L40.4902,66.5274 L53.954,66.5274 L51.476,79 Z" id="?" fill="#000000"></path>
        <path d="M10.4270934,109.673181 L4.62109821,107.895835 L5.16615082,106.308073 C2.34609602,105.857812 0.829427884,103.393227 0.829427884,99.1749934 C0.829427884,93.7955611 3.19922184,90.9281104 6.91979835,90.9281104 C10.3323016,90.9281104 12.2044389,93.46379 12.2044389,98.1322841 C12.2044389,102.137236 10.8773543,104.767707 8.67344588,105.834114 L8.67344588,106.023698 L11.375011,106.876824 L10.4270934,109.673181 Z M6.39844368,93.7718632 C4.88177555,93.7718632 4.4315147,95.1937396 4.4315147,98.3929614 C4.4315147,101.852861 5.11875494,103.535414 6.63542307,103.535414 C8.15209121,103.535414 8.60235206,102.113538 8.60235206,98.9143161 C8.60235206,95.4544169 7.91511181,93.7718632 6.39844368,93.7718632 Z M22.1612868,106.071094 L21.9954013,104.744009 C21.0948796,105.597135 19.9336805,106.331771 18.3222206,106.331771 C16.2604999,106.331771 15.0045091,105.123176 15.0045091,102.20833 L15.0045091,94.1036343 L18.3696165,93.9140508 L18.3696165,100.976037 C18.3696165,102.919268 19.0094609,103.46432 19.9810764,103.46432 C20.6683167,103.46432 21.2370672,103.251039 21.7821198,102.89557 C21.7347239,100.644266 21.711026,97.5872315 21.711026,94.0088426 L25.0761334,94.0088426 C25.0761334,99.5541604 25.1235293,103.203643 25.2894149,105.905208 L22.1612868,106.071094 Z M35.9098052,92.3499868 L32.3788122,92.3499868 L32.5920936,88.9137856 L36.1230866,88.9137856 L35.9098052,92.3499868 Z M39.511892,106 L28.6819336,106 L28.6819336,103.488018 L32.5446977,103.488018 L32.5446977,96.591918 L28.5871418,96.4023345 L28.8478192,94.0088426 L35.9335031,94.0088426 L35.9335031,103.488018 L39.7962672,103.488018 L39.511892,106 Z M52.2177009,106 L42.2171704,106 L42.2171704,103.179945 L48.3786347,96.8762933 L42.1697746,96.971085 L42.4304519,94.0088426 L52.2177009,94.0088426 L52.2177009,96.8051995 L46.1036325,103.132549 L52.4783783,103.01406 L52.2177009,106 Z M65.3737707,106.165886 C59.7573591,106.308073 57.9800136,105.052082 57.9800136,101.852861 L57.9800136,96.5445221 L55.5628238,96.5445221 L55.847199,94.0088426 L57.9800136,94.0088426 L57.9800136,90.8807146 L61.3214231,90.5726414 L61.3214231,94.0088426 L65.4922604,94.0088426 L65.4922604,96.5445221 L61.3214231,96.5445221 L61.3214231,101.331506 C61.3214231,103.01406 62.4352262,103.345831 65.7292398,103.416925 L65.3737707,106.165886 Z M76.6577033,92.3499868 L73.1267103,92.3499868 L73.3399918,88.9137856 L76.8709848,88.9137856 L76.6577033,92.3499868 Z M80.2597901,106 L69.4298318,106 L69.4298318,103.488018 L73.2925959,103.488018 L73.2925959,96.591918 L69.33504,96.4023345 L69.5957174,94.0088426 L76.6814013,94.0088426 L76.6814013,103.488018 L80.5441654,103.488018 L80.2597901,106 Z M87.538771,106.379167 C84.5291326,106.379167 82.4674119,104.27005 82.4674119,100.336192 C82.4674119,96.4260324 85.1926749,93.6296756 88.5103865,93.6296756 C91.5200248,93.6296756 93.5817455,95.7387922 93.5817455,99.6726501 C93.5817455,103.724998 90.8327846,106.379167 87.538771,106.379167 Z M88.1549174,103.677602 C89.4109082,103.677602 90.1692422,102.611195 90.1692422,100.265099 C90.1692422,97.6109294 89.3398144,96.3312407 87.917938,96.3312407 C86.6619472,96.3312407 85.9036131,97.3976479 85.9036131,99.720046 C85.9036131,102.397913 86.7093431,103.677602 88.1549174,103.677602 Z M101.73755,96.5445221 C101.05031,96.5445221 100.457861,96.7578036 99.9128088,97.1132727 C99.9602046,99.3882749 100.007601,102.445309 100.007601,106 L96.6424931,106 C96.6424931,100.454682 96.5950972,96.7815015 96.4292117,94.1036343 L99.5573397,93.9377488 L99.7232253,95.2648334 C100.623747,94.4117076 101.784946,93.6770714 103.396406,93.6770714 C105.434429,93.6770714 106.714117,94.8856663 106.714117,97.8005129 L106.714117,106 L103.34901,106 L103.34901,99.0091078 C103.34901,97.0895747 102.709166,96.5445221 101.73755,96.5445221 Z" id="Quiztion" fill="#000000"></path>
    </g>
</svg>